<?xml version="1.0" encoding="UTF-8" standalone="yes"?>
<svg xmlns="http://www.w3.org/2000/svg" xmlns:xlink="http://www.w3.org/1999/xlink" width="24px" height="24px" viewBox="0 0 24 24" version="1.1" fill="#000000">
  <g id="surface205208">
    <path style=" stroke:none;fill-rule:nonzero;fill:#000000;fill-opacity:1;" d="M 5.992188 4.992188 C 5.582031 4.992188 5.21875 5.238281 5.0625 5.613281 C 4.910156 5.992188 5 6.421875 5.292969 6.707031 L 10.585938 12 L 5.292969 17.292969 C 5.03125 17.542969 4.925781 17.917969 5.019531 18.265625 C 5.109375 18.617188 5.382812 18.890625 5.734375 18.980469 C 6.082031 19.074219 6.457031 18.96875 6.707031 18.707031 L 12 13.414062 L 17.292969 18.707031 C 17.542969 18.96875 17.917969 19.074219 18.265625 18.980469 C 18.617188 18.890625 18.890625 18.617188 18.980469 18.265625 C 19.074219 17.917969 18.96875 17.542969 18.707031 17.292969 L 13.414062 12 L 18.707031 6.707031 C 19.003906 6.417969 19.089844 5.980469 18.929688 5.601562 C 18.769531 5.21875 18.394531 4.976562 17.980469 4.992188 C 17.71875 4.996094 17.472656 5.105469 17.292969 5.292969 L 12 10.585938 L 6.707031 5.292969 C 6.519531 5.097656 6.261719 4.992188 5.992188 4.992188 Z M 5.992188 4.992188 "/>
  </g>
</svg>
